<svg width="465" height="146" viewBox="0 0 465 146" fill="none" xmlns="http://www.w3.org/2000/svg">
<g clip-path="url(#clip0_148_348)">
<path d="M133.51 96.0814C125.194 96.0814 122.467 90.5819 122.467 80.6571C122.467 70.9105 125.194 64.7855 133.51 64.7855C136.103 64.7855 138.07 65.1429 139.188 65.5453C139.366 65.6351 139.411 65.6796 139.411 65.9476L139.232 68.8988C139.232 69.0326 139.098 69.2118 138.875 69.1219C137.802 68.7196 135.835 68.3621 134.002 68.3621C128.055 68.3621 126.938 71.8938 126.938 80.7015C126.938 88.9725 128.055 92.5047 134.002 92.5047C135.566 92.5047 137.534 92.2361 138.651 91.9232C138.875 91.8788 139.188 91.8338 139.232 92.1024L139.501 94.8295C139.545 95.0976 139.456 95.2768 139.322 95.3212C137.891 95.7685 135.7 96.0814 133.51 96.0814Z" fill="#2C2965"/>
<path d="M154.967 96.0813C146.07 96.0813 143.969 90.4924 143.969 83.6521C143.969 76.5881 146.562 71.2678 154.028 71.2678C161.405 71.2678 163.104 75.6941 163.104 81.6404V82.8924C163.104 84.6805 162.702 85.0828 161.942 85.0828H148.663C148.44 85.0828 148.395 85.1722 148.395 85.3958C148.395 91.3421 151.122 92.7728 155.861 92.7728C157.963 92.7728 160.243 92.1917 161.629 91.6102C161.718 91.6102 161.807 91.5658 161.852 91.5658C162.076 91.5658 162.21 91.6552 162.299 91.8339L162.478 94.2035V94.3378C162.478 94.5165 162.389 94.6952 162.165 94.7846C160.243 95.6342 157.828 96.0813 154.967 96.0813ZM148.663 81.9534H158.589C158.991 81.9534 159.125 81.864 159.125 80.3885C159.125 76.3651 157.918 74.4871 154.028 74.4871C149.468 74.4871 148.395 77.5271 148.395 81.6404C148.395 81.8191 148.44 81.9534 148.663 81.9534Z" fill="#2C2965"/>
<path d="M184.472 95.6342C184.203 95.6342 184.024 95.4555 184.024 95.1869V79.8075C184.024 75.6049 183.175 74.5765 178.659 74.5765C177.005 74.5765 175.709 74.7108 174.725 74.9344C174.412 75.0238 174.278 75.1131 174.278 75.4261V95.1868C174.278 95.4554 174.099 95.6341 173.831 95.6341H170.433C170.165 95.6341 169.986 95.4554 169.986 95.1868V72.6541C169.986 72.386 170.165 72.2518 170.433 72.2068C172.847 71.76 176.424 71.2678 178.659 71.2678C186.528 71.2678 188.316 72.967 188.316 79.4944V95.1868C188.316 95.4554 188.138 95.6341 187.869 95.6341L184.472 95.6342Z" fill="#2C2965"/>
<path d="M202.486 96.0813C199.133 96.0813 197.568 94.3376 197.568 91.4763V75.2917C197.568 75.113 197.478 75.0236 197.3 75.0236H193.723C193.455 75.0236 193.276 74.8444 193.276 74.5763V72.1622C193.276 71.8936 193.455 71.7149 193.723 71.7149H197.3C197.478 71.7149 197.568 71.6255 197.568 71.4468V65.8579C197.568 65.5898 197.747 65.4111 198.015 65.4111H201.413C201.681 65.4111 201.86 65.5898 201.86 65.8579V71.4468C201.86 71.6255 201.949 71.7149 202.128 71.7149H206.331C206.599 71.7149 206.778 71.8936 206.778 72.1622V74.5763C206.778 74.8444 206.599 75.0236 206.331 75.0236H202.128C201.949 75.0236 201.86 75.113 201.86 75.2917V90.9396C201.86 92.2809 202.396 92.8175 203.827 92.8175H205.66C205.884 92.8175 206.107 92.9069 206.107 93.2643L206.018 95.1422C206.018 95.4103 205.839 95.6788 205.615 95.7233C204.676 95.902 203.559 96.0813 202.486 96.0813Z" fill="#2C2965"/>
<path d="M212.901 72.2068C214.868 71.76 217.416 71.2678 220.009 71.2678C221.395 71.2678 223.139 71.3127 224.123 71.4914C224.346 71.5363 224.391 71.6257 224.391 71.8493L224.167 74.7106C224.167 74.8444 224.078 74.9342 223.854 74.8893C222.737 74.7106 221.53 74.6212 220.054 74.6212C219.25 74.6212 217.729 74.7106 217.059 75.068C216.791 75.2023 216.746 75.381 216.746 75.6046V95.1866C216.746 95.4996 216.522 95.6788 216.209 95.6339H212.901C212.633 95.6339 212.454 95.4552 212.454 95.1866V72.6539C212.454 72.3858 212.633 72.2518 212.901 72.2068Z" fill="#2C2965"/>
<path d="M229.621 75.1131C229.352 75.1575 228.995 75.1575 228.95 74.8895L228.637 72.6986C228.592 72.4305 228.637 72.1625 228.905 72.0731C230.604 71.5809 232.84 71.2679 235.835 71.2679C241.379 71.2679 244.24 73.3245 244.24 78.5555V94.6507C244.24 94.9188 244.151 95.1424 243.659 95.3211C242.407 95.7234 239.635 96.0814 236.64 96.0814C228.861 96.0814 226.625 94.5165 226.625 89.6434C226.625 85.3514 227.654 83.0263 234.226 82.2215L239.814 81.5511C239.993 81.5062 240.082 81.4617 240.082 81.2825V79.0027C240.082 75.5598 238.652 74.7107 234.807 74.7107C233.197 74.7107 231.051 74.8895 229.621 75.1131ZM240.082 84.9935C240.082 84.8148 239.993 84.7254 239.814 84.7254H235.746C231.99 84.7254 231.007 85.5301 231.007 89.1067C231.007 92.6384 231.767 93.0857 236.237 93.0857C237.489 93.0857 239.009 92.9963 239.68 92.8176C240.038 92.7278 240.082 92.6384 240.082 92.5046V84.9935Z" fill="#2C2965"/>
<path d="M253.716 75.1131C253.447 75.1575 253.09 75.1575 253.045 74.8895L252.732 72.6986C252.687 72.4305 252.732 72.1625 253 72.0731C254.699 71.5809 256.935 71.2679 259.93 71.2679C265.474 71.2679 268.335 73.3245 268.335 78.5555V94.6507C268.335 94.9188 268.246 95.1424 267.754 95.3211C266.502 95.7234 263.73 96.0814 260.735 96.0814C252.956 96.0814 250.72 94.5165 250.72 89.6434C250.72 85.3514 251.749 83.0263 258.321 82.2215L263.909 81.5511C264.088 81.5062 264.177 81.4617 264.177 81.2825V79.0027C264.177 75.5598 262.747 74.7107 258.902 74.7107C257.292 74.7107 255.146 74.8895 253.716 75.1131ZM264.177 84.9935C264.177 84.8148 264.088 84.7254 263.909 84.7254H259.841C256.085 84.7254 255.102 85.5301 255.102 89.1067C255.102 92.6384 255.862 93.0857 260.332 93.0857C261.584 93.0857 263.104 92.9963 263.775 92.8176C264.133 92.7278 264.177 92.6384 264.177 92.5046V84.9935Z" fill="#2C2965"/>
<path d="M280.851 96.0814C277.498 96.0814 275.933 94.9637 275.933 90.8055V63.2205C275.933 62.9524 276.112 62.7737 276.38 62.7737H279.778C280.046 62.7737 280.225 62.9524 280.225 63.2205V90.9397C280.225 92.281 280.806 92.8176 282.058 92.8176H283.98C284.204 92.8176 284.427 92.907 284.427 93.2644L284.338 95.1423C284.338 95.4104 284.159 95.6789 283.935 95.7234C282.997 95.947 282.058 96.0814 280.851 96.0814Z" fill="#2C2965"/>
<path d="M307.986 65.2328C314.2 65.2328 317.24 67.1552 317.24 72.7435C317.24 76.9012 315.452 77.9745 313.53 79.1815C313.082 79.4496 312.993 79.5394 312.993 79.7626C312.993 79.9418 313.127 80.0756 313.395 80.1649C315.899 81.1488 317.866 82.8924 317.866 87.6312C317.866 93.5331 313.887 95.6341 309.55 95.6341H299.312C299.044 95.6341 298.865 95.4554 298.865 95.1868V65.6795C298.865 65.4114 299.044 65.2327 299.312 65.2327L307.986 65.2328ZM305.571 78.6898C309.953 78.6898 312.725 78.2425 312.725 73.1459C312.725 69.7035 311.562 68.4965 306.913 68.4965H303.515C303.291 68.4965 303.247 68.5859 303.247 68.7646V78.332C303.247 78.645 303.336 78.6899 303.604 78.6899L305.571 78.6898ZM306.689 92.3255C311.741 92.3255 313.351 91.5208 313.351 87.0501C313.351 82.4451 310.579 81.6404 306.913 81.6404H303.604C303.336 81.6404 303.247 81.7298 303.247 82.0427V92.0573C303.247 92.2809 303.291 92.3254 303.47 92.3254L306.689 92.3255Z" fill="#2C2965"/>
<path d="M328.191 71.7152C328.459 71.7152 328.638 71.8939 328.638 72.1625V87.2289C328.638 91.4315 329.711 92.6386 334.227 92.6386C335.568 92.6386 336.954 92.5048 337.937 92.2812C338.25 92.1918 338.384 92.1025 338.384 91.7895V72.1625C338.384 71.8939 338.563 71.7152 338.831 71.7152H342.229C342.497 71.7152 342.676 71.8939 342.676 72.1625V94.6952C342.676 94.9638 342.497 95.0975 342.229 95.1425C339.815 95.6342 336.462 96.0815 334.271 96.0815C326.402 96.0815 324.346 94.2036 324.346 87.6762V72.1625C324.346 71.8939 324.525 71.7152 324.793 71.7152H328.191Z" fill="#2C2965"/>
<path d="M350.9 72.2068C352.867 71.76 355.415 71.2678 358.008 71.2678C359.394 71.2678 361.138 71.3127 362.122 71.4914C362.345 71.5363 362.39 71.6257 362.39 71.8493L362.166 74.7106C362.166 74.8444 362.077 74.9342 361.853 74.8893C360.736 74.7106 359.528 74.6212 358.053 74.6212C357.248 74.6212 355.728 74.7106 355.058 75.068C354.789 75.2023 354.745 75.381 354.745 75.6046V95.1866C354.745 95.4996 354.521 95.6788 354.208 95.6339H350.9C350.632 95.6339 350.453 95.4552 350.453 95.1866V72.6539C350.453 72.3858 350.631 72.2518 350.9 72.2068Z" fill="#2C2965"/>
<path d="M376.248 96.0813C367.351 96.0813 365.25 90.4924 365.25 83.6521C365.25 76.5881 367.843 71.2678 375.309 71.2678C382.686 71.2678 384.385 75.6941 384.385 81.6404V82.8924C384.385 84.6805 383.982 85.0828 383.222 85.0828H369.944C369.72 85.0828 369.676 85.1722 369.676 85.3958C369.676 91.3421 372.403 92.7728 377.142 92.7728C379.243 92.7728 381.523 92.1917 382.909 91.6102C382.999 91.6102 383.088 91.5658 383.133 91.5658C383.356 91.5658 383.49 91.6552 383.58 91.8339L383.759 94.2035V94.3378C383.759 94.5165 383.669 94.6952 383.446 94.7846C381.523 95.6342 379.109 96.0813 376.248 96.0813ZM369.944 81.9534H379.869C380.272 81.9534 380.406 81.864 380.406 80.3885C380.406 76.3651 379.198 74.4871 375.309 74.4871C370.749 74.4871 369.676 77.5271 369.676 81.6404C369.676 81.8191 369.72 81.9534 369.944 81.9534Z" fill="#2C2965"/>
<path d="M392.742 75.1131C392.474 75.1575 392.116 75.1575 392.072 74.8895L391.759 72.6986C391.714 72.4305 391.759 72.1625 392.027 72.0731C393.726 71.5809 395.961 71.2679 398.957 71.2679C404.501 71.2679 407.362 73.3245 407.362 78.5555V94.6507C407.362 94.9188 407.273 95.1424 406.781 95.3211C405.529 95.7234 402.757 96.0814 399.762 96.0814C391.982 96.0814 389.747 94.5165 389.747 89.6434C389.747 85.3514 390.775 83.0263 397.347 82.2215L402.936 81.5511C403.115 81.5062 403.204 81.4617 403.204 81.2825V79.0027C403.204 75.5598 401.774 74.7107 397.929 74.7107C396.319 74.7107 394.173 74.8895 392.742 75.1131ZM403.204 84.9935C403.204 84.8148 403.115 84.7254 402.936 84.7254H398.867C395.112 84.7254 394.128 85.5301 394.128 89.1067C394.128 92.6384 394.888 93.0857 399.359 93.0857C400.611 93.0857 402.131 92.9963 402.802 92.8176C403.159 92.7278 403.204 92.6384 403.204 92.5046V84.9935Z" fill="#2C2965"/>
<path d="M418.626 71.7152C418.894 71.7152 419.073 71.8939 419.073 72.1625V87.2289C419.073 91.4315 420.146 92.6386 424.661 92.6386C426.002 92.6386 427.388 92.5048 428.372 92.2812C428.685 92.1918 428.819 92.1025 428.819 91.7895V72.1625C428.819 71.8939 428.998 71.7152 429.266 71.7152H432.664C432.932 71.7152 433.111 71.8939 433.111 72.1625V94.6952C433.111 94.9638 432.932 95.0975 432.664 95.1425C430.25 95.6342 426.897 96.0815 424.706 96.0815C416.837 96.0815 414.781 94.2036 414.781 87.6762V72.1625C414.781 71.8939 414.959 71.7152 415.228 71.7152H418.626Z" fill="#2C2965"/>
<path d="M133.42 145.305H127.608C127.385 145.305 127.206 145.082 127.161 144.948C125.328 140.03 120.992 124.739 120.41 121.789C120.41 121.52 120.5 121.386 120.813 121.386H124.479C124.747 121.386 124.837 121.565 124.881 121.789C126.222 127.467 128.637 137.124 130.067 141.55C130.112 141.773 130.291 141.818 130.693 141.818C131.14 141.818 131.274 141.773 131.364 141.55C132.795 137.123 135.12 127.467 136.416 121.789C136.461 121.52 136.684 121.386 136.997 121.386H140.44C140.708 121.386 140.798 121.61 140.798 121.834C140.261 124.739 135.701 140.298 133.957 144.948C133.868 145.171 133.733 145.305 133.42 145.305Z" fill="#2C2965"/>
<path d="M161.092 143.338C159.572 145.037 157.292 145.752 153.76 145.752C150.183 145.752 148.082 145.037 146.562 143.338C144.953 141.46 143.745 137.615 143.745 133.144C143.745 128.629 144.908 125.097 146.562 123.264C148.082 121.52 150.362 120.939 153.849 120.939C157.426 120.939 159.572 121.565 161.092 123.264C162.702 125.141 163.819 128.629 163.819 133.144C163.819 137.615 162.702 141.46 161.092 143.338ZM149.781 141.326C150.496 142.086 151.435 142.399 153.76 142.399C156.219 142.399 157.113 142.086 157.784 141.326C158.901 140.119 159.438 136.81 159.438 133.144C159.438 129.434 158.901 126.528 157.784 125.321C157.113 124.56 156.219 124.248 153.849 124.248C151.435 124.248 150.496 124.561 149.781 125.321C148.663 126.528 148.127 129.434 148.127 133.144C148.127 136.81 148.663 140.119 149.781 141.326Z" fill="#2C2965"/>
<path d="M186.26 143.338C184.74 145.037 182.46 145.752 178.928 145.752C175.352 145.752 173.25 145.037 171.73 143.338C170.121 141.46 168.914 137.615 168.914 133.144C168.914 128.629 170.076 125.097 171.73 123.264C173.25 121.52 175.53 120.939 179.018 120.939C182.594 120.939 184.74 121.565 186.26 123.264C187.87 125.141 188.988 128.629 188.988 133.144C188.988 137.615 187.87 141.46 186.26 143.338ZM174.949 141.326C175.665 142.086 176.603 142.399 178.928 142.399C181.387 142.399 182.281 142.086 182.952 141.326C184.07 140.119 184.606 136.81 184.606 133.144C184.606 129.434 184.07 126.528 182.952 125.321C182.281 124.56 181.387 124.248 179.018 124.248C176.603 124.248 175.665 124.561 174.949 125.321C173.832 126.528 173.295 129.434 173.295 133.144C173.295 136.81 173.832 140.119 174.949 141.326Z" fill="#2C2965"/>
<path d="M195.423 121.878C197.39 121.431 199.938 120.939 202.532 120.939C203.917 120.939 205.661 120.984 206.645 121.162C206.868 121.207 206.913 121.297 206.913 121.52L206.689 124.382C206.689 124.515 206.6 124.605 206.376 124.56C205.259 124.382 204.052 124.292 202.576 124.292C201.772 124.292 200.251 124.382 199.581 124.739C199.313 124.873 199.268 125.052 199.268 125.276V144.858C199.268 145.171 199.044 145.35 198.731 145.305H195.423C195.155 145.305 194.976 145.126 194.976 144.858V122.325C194.976 122.057 195.155 121.923 195.423 121.878Z" fill="#2C2965"/>
<path d="M218.892 133.055C218.892 124.561 222.156 120.939 229.756 120.939C231.276 120.939 232.707 121.252 233.243 121.252C233.512 121.252 233.556 121.073 233.556 120.85V112.892C233.556 112.624 233.735 112.445 234.003 112.445H237.401C237.669 112.445 237.848 112.624 237.848 112.892V144.277C237.848 144.545 237.67 144.724 237.401 144.814C235.568 145.305 232.975 145.753 229.98 145.753C221.127 145.753 218.892 142.22 218.892 133.055ZM233.556 125.186C233.556 124.963 233.467 124.739 233.243 124.65C232.617 124.426 231.097 124.248 229.846 124.248C224.928 124.248 223.363 125.589 223.363 133.055C223.363 140.477 224.123 142.489 229.98 142.489C230.963 142.489 232.394 142.444 233.154 142.176C233.512 142.041 233.556 141.863 233.556 141.684L233.556 125.186Z" fill="#2C2965"/>
<path d="M253.941 145.752C245.044 145.752 242.942 140.163 242.942 133.323C242.942 126.259 245.535 120.939 253.002 120.939C260.379 120.939 262.077 125.365 262.077 131.311V132.563C262.077 134.351 261.675 134.754 260.915 134.754H247.637C247.413 134.754 247.368 134.843 247.368 135.067C247.368 141.013 250.096 142.444 254.835 142.444C256.936 142.444 259.216 141.863 260.602 141.281C260.692 141.281 260.781 141.237 260.826 141.237C261.049 141.237 261.183 141.326 261.273 141.505L261.452 143.874V144.009C261.452 144.187 261.362 144.366 261.139 144.456C259.216 145.305 256.802 145.752 253.941 145.752ZM247.637 131.624H257.562C257.964 131.624 258.098 131.535 258.098 130.059C258.098 126.036 256.891 124.158 253.002 124.158C248.441 124.158 247.368 127.198 247.368 131.311C247.368 131.49 247.413 131.624 247.637 131.624Z" fill="#2C2965"/>
<path d="M280.315 122.146C280.315 122.995 280.404 123.666 280.94 124.426C281.656 125.454 283.668 126.796 286.395 128.763C288.899 130.507 290.776 132.116 291.715 133.636C292.52 134.977 292.565 136.319 292.565 137.526C292.565 143.159 289.837 145.618 284.249 145.618C281.432 145.618 277.99 145.26 275.799 144.724C275.62 144.679 275.575 144.59 275.575 144.322L275.754 141.415C275.754 141.281 275.888 141.147 276.112 141.192C278.705 141.639 281.209 141.863 283.847 141.863C286.708 141.863 288.273 141.058 288.273 137.928C288.273 137.079 288.228 136.006 287.691 135.246C286.976 134.217 284.964 132.876 282.237 130.909C279.733 129.165 277.766 127.556 276.827 126.036C276.023 124.695 275.978 123.488 275.978 122.28C275.978 116.647 278.884 114.77 285.322 114.77C287.915 114.77 291 115.261 292.118 115.664C292.297 115.753 292.341 115.798 292.341 116.066L292.162 118.793C292.162 118.927 292.028 119.106 291.805 119.017C290.732 118.614 287.692 118.301 285.456 118.301C281.611 118.301 280.315 119.196 280.315 122.146Z" fill="#2C2965"/>
<path d="M305.796 145.752C302.443 145.752 300.878 144.009 300.878 141.147V124.963C300.878 124.784 300.789 124.695 300.61 124.695H297.033C296.765 124.695 296.586 124.515 296.586 124.247V121.833C296.586 121.565 296.765 121.386 297.033 121.386H300.61C300.789 121.386 300.878 121.296 300.878 121.118V115.529C300.878 115.261 301.057 115.082 301.325 115.082H304.723C304.991 115.082 305.17 115.261 305.17 115.529V121.118C305.17 121.296 305.259 121.386 305.438 121.386H309.641C309.909 121.386 310.088 121.565 310.088 121.833V124.247C310.088 124.515 309.909 124.695 309.641 124.695H305.438C305.259 124.695 305.17 124.784 305.17 124.963V140.611C305.17 141.952 305.706 142.488 307.137 142.488H308.97C309.194 142.488 309.417 142.578 309.417 142.935L309.328 144.813C309.328 145.081 309.149 145.35 308.925 145.394C307.987 145.573 306.869 145.752 305.796 145.752Z" fill="#2C2965"/>
<path d="M317.284 124.784C317.016 124.828 316.658 124.828 316.613 124.56L316.3 122.37C316.256 122.101 316.3 121.833 316.569 121.744C318.268 121.252 320.503 120.939 323.498 120.939C329.042 120.939 331.904 122.995 331.904 128.226V144.322C331.904 144.59 331.814 144.813 331.322 144.992C330.071 145.394 327.299 145.752 324.303 145.752C316.524 145.752 314.289 144.187 314.289 139.314C314.289 135.022 315.317 132.697 321.889 131.892L327.477 131.222C327.656 131.177 327.746 131.133 327.746 130.953V128.674C327.746 125.231 326.315 124.382 322.47 124.382C320.861 124.382 318.715 124.56 317.284 124.784ZM327.746 134.664C327.746 134.486 327.656 134.396 327.477 134.396H323.409C319.653 134.396 318.67 135.201 318.67 138.778C318.67 142.309 319.43 142.757 323.901 142.757C325.152 142.757 326.673 142.667 327.343 142.489C327.701 142.399 327.746 142.309 327.746 142.176V134.664Z" fill="#2C2965"/>
<path d="M346.565 145.752C343.212 145.752 341.647 144.009 341.647 141.147V124.963C341.647 124.784 341.558 124.695 341.379 124.695H337.802C337.534 124.695 337.355 124.515 337.355 124.247V121.833C337.355 121.565 337.534 121.386 337.802 121.386H341.379C341.558 121.386 341.647 121.296 341.647 121.118V115.529C341.647 115.261 341.826 115.082 342.094 115.082H345.492C345.76 115.082 345.939 115.261 345.939 115.529V121.118C345.939 121.296 346.028 121.386 346.207 121.386H350.41C350.678 121.386 350.857 121.565 350.857 121.833V124.247C350.857 124.515 350.678 124.695 350.41 124.695H346.207C346.028 124.695 345.939 124.784 345.939 124.963V140.611C345.939 141.952 346.475 142.488 347.906 142.488H349.739C349.963 142.488 350.186 142.578 350.186 142.935L350.097 144.813C350.097 145.081 349.918 145.35 349.694 145.394C348.756 145.573 347.638 145.752 346.565 145.752Z" fill="#2C2965"/>
<path d="M357.651 116.692C357.383 116.692 357.204 116.513 357.204 116.244V112.489C357.204 112.221 357.382 112.042 357.651 112.042H361.451C361.719 112.042 361.898 112.221 361.898 112.489V116.244C361.898 116.513 361.719 116.692 361.451 116.692H357.651ZM357.83 145.305C357.561 145.305 357.382 145.126 357.382 144.858V121.833C357.382 121.565 357.561 121.386 357.83 121.386H361.227C361.496 121.386 361.674 121.565 361.674 121.833V144.858C361.674 145.126 361.496 145.305 361.227 145.305H357.83Z" fill="#2C2965"/>
<path d="M368.916 145.305C368.781 145.26 368.647 145.216 368.647 144.992L368.826 142.131C368.826 141.996 369.005 141.907 369.184 141.952C370.749 142.265 372.582 142.399 374.057 142.399C377.902 142.399 378.528 141.997 378.528 139.18C378.528 137.526 377.589 136.676 373.923 134.038C370.257 131.401 368.871 130.283 368.871 127.377C368.871 122.772 370.927 120.939 376.784 120.939C378.886 120.939 380.674 121.073 381.881 121.297C382.015 121.341 382.149 121.386 382.149 121.61L381.97 124.471C381.97 124.605 381.792 124.695 381.613 124.65C380.45 124.471 378.751 124.247 377.276 124.247C373.967 124.247 372.85 124.471 372.85 126.93C372.85 128.897 373.833 129.568 377.5 131.982C381.344 134.53 382.596 136.274 382.596 138.956C382.596 144.232 380.227 145.752 374.772 145.752C372.671 145.752 370.302 145.573 368.916 145.305Z" fill="#2C2965"/>
<path d="M396.543 145.752C393.19 145.752 391.625 144.009 391.625 141.147V124.963C391.625 124.784 391.535 124.695 391.357 124.695H387.78C387.512 124.695 387.333 124.515 387.333 124.247V121.833C387.333 121.565 387.512 121.386 387.78 121.386H391.357C391.535 121.386 391.625 121.296 391.625 121.118V115.529C391.625 115.261 391.804 115.082 392.072 115.082H395.47C395.738 115.082 395.917 115.261 395.917 115.529V121.118C395.917 121.296 396.006 121.386 396.185 121.386H400.388C400.656 121.386 400.835 121.565 400.835 121.833V124.247C400.835 124.515 400.656 124.695 400.388 124.695H396.185C396.006 124.695 395.917 124.784 395.917 124.963V140.611C395.917 141.952 396.453 142.488 397.884 142.488H399.717C399.941 142.488 400.164 142.578 400.164 142.935L400.075 144.813C400.075 145.081 399.896 145.35 399.672 145.394C398.733 145.573 397.616 145.752 396.543 145.752Z" fill="#2C2965"/>
<path d="M408.523 116.692C408.254 116.692 408.075 116.513 408.075 116.244V112.489C408.075 112.221 408.254 112.042 408.523 112.042H412.323C412.591 112.042 412.77 112.221 412.77 112.489V116.244C412.77 116.513 412.591 116.692 412.323 116.692H408.523ZM408.701 145.305C408.433 145.305 408.254 145.126 408.254 144.858V121.833C408.254 121.565 408.433 121.386 408.701 121.386H412.099C412.367 121.386 412.546 121.565 412.546 121.833V144.858C412.546 145.126 412.367 145.305 412.099 145.305H408.701Z" fill="#2C2965"/>
<path d="M430.428 145.752C421.531 145.752 419.43 140.163 419.43 133.323C419.43 126.259 422.023 120.939 429.489 120.939C436.866 120.939 438.565 125.365 438.565 131.311V132.563C438.565 134.351 438.163 134.754 437.403 134.754H424.124C423.901 134.754 423.856 134.843 423.856 135.067C423.856 141.013 426.583 142.444 431.322 142.444C433.424 142.444 435.704 141.863 437.09 141.281C437.179 141.281 437.268 141.237 437.313 141.237C437.537 141.237 437.671 141.326 437.76 141.505L437.939 143.874V144.009C437.939 144.187 437.85 144.366 437.626 144.456C435.704 145.305 433.29 145.752 430.428 145.752ZM424.124 131.624H434.05C434.452 131.624 434.586 131.535 434.586 130.059C434.586 126.036 433.379 124.158 429.489 124.158C424.929 124.158 423.856 127.198 423.856 131.311C423.856 131.49 423.901 131.624 424.124 131.624Z" fill="#2C2965"/>
<path d="M449.516 130.059C449.516 130.328 449.694 130.462 450.32 130.462C450.902 130.462 451.125 130.417 451.304 130.283C453.495 127.869 456.892 123.845 458.502 121.788C458.726 121.52 458.904 121.386 459.351 121.386H463.152C463.643 121.386 463.822 121.52 463.688 121.788C462.883 122.817 457.787 128.405 454.791 131.579C454.612 131.714 454.478 131.937 454.478 132.116C454.478 132.295 454.612 132.474 454.881 132.742C457.027 135.38 462.973 143.248 464.091 144.813C464.225 145.037 464.225 145.305 463.509 145.305H459.754C459.352 145.305 459.217 145.26 458.994 144.948C457.206 142.354 453.271 136.766 451.393 134.351C451.259 134.128 450.946 133.905 450.365 133.905C449.605 133.905 449.516 134.038 449.516 134.307V144.858C449.516 145.126 449.337 145.305 449.069 145.305H445.671C445.403 145.305 445.224 145.126 445.224 144.858V112.891C445.224 112.623 445.402 112.445 445.671 112.445H449.069C449.337 112.445 449.516 112.623 449.516 112.891V130.059Z" fill="#2C2965"/>
<path d="M36.1108 27.9946V35.8128H13.2621V54.5586H36.1107V62.3967H5.4638V27.9946H36.1108ZM41.5746 22.5308H4.9671C2.2238 22.5308 0 24.7546 0 27.4979V67.8804H41.5845V49.0948H18.7359V41.2766H41.5845V22.5308H41.5746Z" fill="#00A0CC"/>
<path d="M61.9397 5.4638V27.9945H88.5733V62.3867H54.1315V5.4638H61.9397ZM61.9398 54.5288H80.7154V35.783H61.9398V54.5288ZM62.4365 0H48.6677V67.8803H94.0372V27.4978C94.0372 24.7545 91.8134 22.5307 89.0701 22.5307H67.3937V5.2254C67.4176 2.4293 65.2203 0.1178 62.4266 0L62.4365 0ZM67.4036 49.065V41.2468H75.2615V49.065H67.4036Z" fill="#00A0CC"/>
<path d="M88.5038 80.3875V88.3349H13.3318V106.216H88.5436V139.883H5.48381V132.045H80.7452V114.035H5.48381V80.3875H88.5038ZM93.9676 74.9237H0.0100098V119.538H75.2913V126.601H0.0200098V140.4C0.0200098 143.143 2.24381 145.367 4.98711 145.367H89.0403C91.7835 145.367 94.0074 143.143 94.0074 140.4V100.733H18.7956V93.7789H93.9676V74.9039V74.9237Z" fill="#00A0CC"/>
</g>
<defs>
<clipPath id="clip0_148_348">
<rect width="464.159" height="145.752" fill="white"/>
</clipPath>
</defs>
</svg>
