<svg version="1.1" xmlns="http://www.w3.org/2000/svg" xmlns:xlink="http://www.w3.org/1999/xlink" x="0px" y="0px" enable-background="new 0 0 323.125 161" xml:space="preserve" viewBox="109.87 64.52 73.45 37.47"> <g id="Logo"> 	<g> 		<path d="M177.687,87.157c3.1,0,5.613,2.513,5.613,5.613v3.585c0,3.1-2.514,5.611-5.613,5.611h-8.378 			c-3.1,0-5.612-2.512-5.612-5.611v-2.214c0-3.857-3.127-6.984-6.984-6.984h-39.85c-3.857,0-6.984-3.127-6.984-6.985v-8.637 			c0-3.857,3.127-6.985,6.984-6.985h39.85c3.857,0,6.984,3.127,6.984,6.985v8.637c0,3.858,3.127,6.985,6.985,6.985H177.687z"></path> 		<path fill="#FFFFFF" d="M121.91,77.924c0-0.524-0.658-0.739-1.505-0.995l-1.693-0.511c-1.223-0.363-2.298-1.223-2.298-2.729 			c0-1.814,1.626-3.051,3.831-3.051c1.707,0,3.723,0.591,3.723,1.68c0,0.672-0.336,1.088-0.955,1.088 			c-0.322,0-0.604-0.107-0.927-0.215c-0.471-0.175-1.048-0.376-1.841-0.376c-0.646,0-1.452,0.255-1.452,0.766 			c0,0.457,0.363,0.672,1.156,0.914l1.895,0.578c1.277,0.39,2.446,1.156,2.446,2.917c0,1.881-1.761,3.091-4.019,3.091 			c-1.895,0-4.113-0.591-4.113-1.68c0-0.672,0.39-1.088,1.062-1.088c0.349,0,0.672,0.094,1.035,0.215 			c0.511,0.174,1.115,0.376,2.016,0.376C121.037,78.905,121.91,78.556,121.91,77.924z"></path> 		<path fill="#FFFFFF" d="M133.428,71.849c0-0.766,0.403-1.155,1.156-1.155c0.766,0,1.169,0.39,1.169,1.155v4.435 			c0,2.917-1.949,4.798-4.61,4.798c-2.648,0-4.597-1.882-4.597-4.798v-4.435c0-0.766,0.404-1.155,1.156-1.155 			c0.766,0,1.169,0.39,1.169,1.155v4.435c0,1.573,0.955,2.514,2.271,2.514c1.331,0,2.285-0.941,2.285-2.514V71.849z"></path> 		<path fill="#FFFFFF" d="M142.93,77.816h-2.124v2.056c0,0.766-0.403,1.156-1.169,1.156c-0.752,0-1.156-0.39-1.156-1.156v-7.93 			c0-0.766,0.404-1.156,1.156-1.156h3.333c2.231,0,3.776,1.465,3.776,3.575c0,1.29-0.592,2.272-1.586,2.796l1.075,2.15 			c0.107,0.215,0.147,0.416,0.147,0.618c0,0.672-0.766,1.102-1.344,1.102c-0.43,0-0.738-0.255-0.954-0.739L142.93,77.816z 			 M140.806,73.004v2.701h1.962c0.887,0,1.585-0.403,1.585-1.344c0-0.954-0.698-1.357-1.585-1.357H140.806z"></path> 		<path fill="#FFFFFF" d="M151.584,77.373v2.5c0,0.766-0.389,1.156-1.155,1.156c-0.753,0-1.155-0.39-1.155-1.156v-7.93 			c0-0.766,0.402-1.156,1.155-1.156h5.564c0.739,0,1.102,0.377,1.102,1.103c0,0.739-0.362,1.115-1.102,1.115h-4.409v2.151h2.756 			c0.739,0,1.102,0.376,1.102,1.115c0,0.726-0.362,1.103-1.102,1.103H151.584z"></path> 	</g> </g> <g id="Pay_off"> </g> </svg>