
<svg xmlns="http://www.w3.org/2000/svg" viewBox="0 0 464 68" class="site--logo" role="img" aria-labelledby="logo--title">
  <title id="logo--title">Maastricht University</title>
  <g class="logo--symbol">
    <polygon points="3.45 7.02 3.45 33.27 36.7 21.45 3.45 7.02" fill="#fff"></polygon>
    <path d="M0,0V40.45l41.7-19ZM12.23,28.16c-3.49,0-6-1.56-6-5.52,0-3.27,0-6,.1-8.74H10c-.05,2.81-.05,5.62-.05,8.48,0,2.09.78,2.92,2.35,2.92,1.14,0,2.39-.52,2.39-3L14.73,14h3.65l-.05,8.8c-.06,3.54-2.51,5.41-6.1,5.41" fill="#001c3d"></path>
    <polyline points="48.57 64.52 12.2 49.25 48.57 31.02" fill="#fff"></polyline>
    <path d="M8.85,49.25l41.7,18.94V27.75ZM44.09,55,42.58,45h0L40.09,55H35.92L33.63,45h-.05l-2,9.94H28l3.33-13.9h4.53l2,10.15H38l2.5-10.15H45L47.74,55Z" fill="#001c3d"></path>
  </g>
  <g class="logo--text">
    <path d="M106.14,49.25l-2-13.23c-.42-2.6-.68-4.68-.89-6.61h-.1c-.37,1.77-.84,3.75-1.51,5.88l-4.38,13.9H92L87.77,36.33a42.16,42.16,0,0,1-1.77-7h-.11c-.15,2.45-.47,4.63-.78,7L83.55,49.14H78.14l4.27-27.69h6.24l4.64,14.21a41.68,41.68,0,0,1,1.51,5.83h.1a42.07,42.07,0,0,1,1.56-5.73l4.74-14.31h6.19l4.32,27.69h-5.57Z" fill="#001c3d"></path>
    <path d="M127,49.25a23.37,23.37,0,0,1,.21-3.44l-.06-.05a6.9,6.9,0,0,1-6.5,3.9c-3.7,0-5.83-2.08-5.83-5.36,0-4.89,4.84-7.44,11.76-7.44v-1.1c0-2.13-1-3.23-4-3.23a13.42,13.42,0,0,0-6,1.62l-.47-4.37a22.41,22.41,0,0,1,7.29-1.25c6.56,0,8.38,2.65,8.38,7.08v8.48c0,1.67.05,3.59.1,5.26H127Zm-.42-9c-5.52,0-6.77,1.61-6.77,3.23a2.14,2.14,0,0,0,2.4,2.18c2.6,0,4.37-2.44,4.37-4.94Z" fill="#001c3d"></path>
    <path d="M148.26,49.25a23.37,23.37,0,0,1,.21-3.44l-.06-.05a6.9,6.9,0,0,1-6.5,3.9c-3.7,0-5.83-2.08-5.83-5.36,0-4.89,4.84-7.44,11.76-7.44v-1.1c0-2.13-1-3.23-4-3.23a13.42,13.42,0,0,0-6,1.62l-.47-4.37a22.46,22.46,0,0,1,7.29-1.25c6.56,0,8.38,2.65,8.38,7.08v8.48c0,1.67,0,3.59.1,5.26h-4.89v-.1Zm-.42-9c-5.51,0-6.76,1.61-6.76,3.23a2.13,2.13,0,0,0,2.39,2.18c2.6,0,4.32-2.44,4.32-4.94v-.47Z" fill="#001c3d"></path>
    <path d="M162.37,49.66a27.51,27.51,0,0,1-4.27-.36l.1-4.32a18.56,18.56,0,0,0,4.37.62c2,0,3.34-.83,3.34-2.18,0-3.6-8.23-1.57-8.23-8.49,0-3.59,2.92-6.51,8.64-6.51a23.23,23.23,0,0,1,3.75.37L169.91,33a14.81,14.81,0,0,0-3.74-.52c-2,0-3,.83-3,2.08,0,3.34,8.38,1.83,8.38,8.44-.05,4-3.59,6.71-9.16,6.71" fill="#001c3d"></path>
    <path d="M182.93,49.66c-4.53,0-5.88-1.66-5.88-6.4V33h-3.54V28.89H177v-6.3l5.26-1.4v7.65h4.95V32.9h-4.95v9c0,2.61.63,3.39,2.4,3.39a10.18,10.18,0,0,0,2.55-.31v4.21a18.36,18.36,0,0,1-4.27.52" fill="#001c3d"></path>
    <path d="M202.56,33.63c-3.75-.78-5.68,1.67-5.68,7.34V49.3h-5.26V28.94h4.95a26.6,26.6,0,0,1-.36,4.12h.1c1-2.61,3-4.84,6.45-4.53Z" fill="#001c3d"></path>
    <path d="M209,26.29a3.18,3.18,0,1,1,0-6.35,3.24,3.24,0,0,1,3.28,3.17A3.28,3.28,0,0,1,209,26.29m-2.65,2.6h5.25V49.25h-5.25Z" fill="#001c3d"></path>
    <path d="M225.2,49.66c-5.67,0-9.16-3-9.16-9.89,0-6.35,3.33-11.24,10.52-11.24a15.94,15.94,0,0,1,4.16.57l-.52,4.53a10.55,10.55,0,0,0-3.7-.73c-3.33,0-5,2.44-5,6.3,0,3.49,1.35,5.88,4.84,5.88a9.15,9.15,0,0,0,4-.88l.41,4.47a15.26,15.26,0,0,1-5.57,1" fill="#001c3d"></path>
    <path d="M247.53,49.25v-13c0-2.13-.57-3.38-2.49-3.38-2.66,0-4.74,3-4.74,6.61V49.3H235V19.37h5.26v8.74a22.22,22.22,0,0,1-.36,4.17l.1,0a7.2,7.2,0,0,1,6.66-3.8c4.58,0,6.09,3,6.09,6.51V49.35h-5.25v-.1Z" fill="#001c3d"></path>
    <path d="M265.23,49.66c-4.52,0-5.88-1.66-5.88-6.4V33h-3.54V28.89h3.49v-6.3l5.26-1.4v7.65h4.94V32.9h-4.94v9c0,2.61.62,3.39,2.39,3.39a10.12,10.12,0,0,0,2.55-.31v4.21a18.36,18.36,0,0,1-4.27.52" fill="#001c3d"></path>
    <path d="M294.54,49.71c-8.74,0-10.72-4.73-10.72-10V21.6h5.36V39.35c0,3.49,1.14,5.94,5.73,5.94,4.11,0,5.83-1.72,5.83-6.46V21.55h5.31V38.47c0,7.65-4.17,11.24-11.51,11.24" fill="#001c3d"></path>
    <path d="M323.8,49.25v-13c0-2.13-.57-3.38-2.5-3.38-2.65,0-4.74,3-4.74,6.61V49.3h-5.25V28.94h4.94a28.36,28.36,0,0,1-.26,3.59l.05.06A7.48,7.48,0,0,1,323,28.48c4.58,0,6.09,3,6.09,6.5V49.3H323.8v0Z" fill="#001c3d"></path>
    <path d="M337.18,26.29a3.18,3.18,0,1,1,3.28-3.18,3.25,3.25,0,0,1-3.28,3.18m-2.61,2.6h5.26V49.25h-5.26Z" fill="#001c3d"></path>
    <path d="M356.12,49.25h-5.3l-7.55-20.36H349l3.23,9.16c.47,1.41,1,3,1.36,4.53h.1a31.71,31.71,0,0,1,1.25-4.32l3.28-9.37h5.57Z" fill="#001c3d"></path>
    <path d="M383.3,39.93H370.65c0,3.8,1.82,5.67,5.62,5.67a15.19,15.19,0,0,0,5.94-1.25l.47,4.06a19.63,19.63,0,0,1-7.29,1.31c-6.46,0-10.1-3.23-10.1-10.42,0-6.24,3.43-10.82,9.58-10.82,5.93,0,8.59,4.06,8.59,9.11a21.54,21.54,0,0,1-.16,2.34m-8.59-7.65c-2.19,0-3.69,1.61-4,4.06h7.5c.1-2.56-1.3-4.06-3.54-4.06" fill="#001c3d"></path>
    <path d="M398.71,33.63C395,32.85,393,35.3,393,41V49.3h-5.26V28.94h4.94a25.42,25.42,0,0,1-.36,4.12h.1c1-2.61,3-4.84,6.46-4.53Z" fill="#001c3d"></path>
    <path d="M406,49.66a27.51,27.51,0,0,1-4.27-.36l.1-4.32a18.56,18.56,0,0,0,4.37.62c2,0,3.33-.83,3.33-2.18,0-3.6-8.22-1.57-8.22-8.49,0-3.59,2.91-6.51,8.64-6.51a23.23,23.23,0,0,1,3.75.37L413.49,33a14.87,14.87,0,0,0-3.74-.52c-2,0-3,.83-3,2.08,0,3.34,8.38,1.83,8.38,8.44-.06,4-3.59,6.71-9.16,6.71" fill="#001c3d"></path>
    <path d="M422,26.29a3.18,3.18,0,1,1,3.28-3.18A3.25,3.25,0,0,1,422,26.29m-2.6,2.6h5.26V49.25h-5.26Z" fill="#001c3d"></path>
    <path d="M438.17,49.66c-4.53,0-5.88-1.66-5.88-6.4V33h-3.54V28.89h3.48v-6.3l5.26-1.4v7.65h4.95V32.9h-4.95v9c0,2.61.63,3.39,2.4,3.39a10.18,10.18,0,0,0,2.55-.31v4.21a18.36,18.36,0,0,1-4.27.52" fill="#001c3d"></path>
    <path d="M456.44,51.17c-2.39,6.35-4.53,8.28-9.21,8.28a13,13,0,0,1-2.87-.31l.32-4.53a8.63,8.63,0,0,0,2.81.47c1.72,0,2.86-.78,3.95-3.8l.68-2-7.5-20.36h5.84l2.75,7.81c.63,1.77,1.15,3.75,1.62,5.63h.05c.47-1.83,1.3-4.53,2-6.46L459.25,29h5.63Z" fill="#001c3d"></path>
  </g>
</svg>

    